# xmcd
#
# Track frame offsets:
#	150
#	17654
#	35224
#	52101
#	71999
#	88420
#	102839
#	127657
#	142678
#	155945
#	175947
#	196987
#	211300
#	237446
#
# Disc length: 3442 seconds
# Revision: 0
# Processed by: cddbd v1.5.2PL0 Copyright (c) Steve Scherf et al.
# Submitted via: dBpowerAMP V12.0
#
DISCID=cd0d700e
DTITLE=Eve Selis - Family Tree
DYEAR=2011
DGENRE=Country
TTITLE0=rubber and glue
TTITLE1=any day
TTITLE2=when is everything enough
TTITLE3=family tree
TTITLE4=crazy that i love
TTITLE5=all roads lead to here
TTITLE6=don't you feel lonesome
TTITLE7=bump in the road
TTITLE8=witness to your life
TTITLE9=water off a duck's back
TTITLE10=i don't want to cry
TTITLE11=65 roses
TTITLE12=stop the train
TTITLE13=hallelujah
EXTD=
EXTT0=
EXTT1=
EXTT2=
EXTT3=
EXTT4=
EXTT5=
EXTT6=
EXTT7=
EXTT8=
EXTT9=
EXTT10=
EXTT11=
EXTT12=
EXTT13=
PLAYORDER=
